<svg id="Capa_1" enable-background="new 0 0 506.703 506.703" height="512" viewBox="0 0 506.703 506.703" width="512" xmlns="http://www.w3.org/2000/svg"><g><g><path d="m502.948 481.25c-37.047-51.865-90.933-87.94-151.813-102.693-4.432 7.198-9.731 13.93-15.858 20.058-20.562 20.561-47.899 31.885-76.977 31.885s-56.415-11.324-76.977-31.885c-6.662-6.662-12.349-14.04-17-21.954-25.573 5.33-50.405 14.428-73.245 26.983-34.345 18.877-64.54 45.713-87.322 77.608l-2.765 3.87v21.581h504.723v-21.581zm-145.683-6.216h-207.827v-29.69h207.827z"/><g><path d="m278.765 245.15c.15 2.424.23 4.859.187 7.312-.408 23.674-9.854 45.934-26.596 62.677l-2.751 2.751-18.999 18.999-20.796-17.015-27.015-22.103c-2.379 7.532-3.668 15.548-3.668 23.867 0 43.726 35.446 79.172 79.172 79.172s79.172-35.446 79.172-79.172c.001-36.647-24.903-67.465-58.706-76.488z"/></g><g><path d="m338.007 77.433-11.725-10.512c-28.999-25.999-60.935-48.449-95.123-66.921h-230.169v42.285l89.069 56.68 17.468 64.052c7.949 29.146 24.786 55.09 48.168 74.221l72.915 59.657 2.751-2.751c23.305-23.305 23.954-60.886 1.465-84.982l-1.991-2.134c-15.927-17.066-18.487-42.67-6.253-62.55l18.873-30.669 46.472 30.981c25.401 16.935 37.015 48.296 28.769 77.69l-2.028 7.227c6.652 4.243 12.894 9.236 18.607 14.951 13.171 13.171 22.544 29.126 27.586 46.535 1.405-2.202 2.565-4.606 3.403-7.2 4.21-13.034 9.505-29.413 14.977-46.34 18.515-57.255 1.571-120.049-43.234-160.22z"/></g></g></g></svg>