<svg height="512" viewBox="0 0 512 512" width="512" xmlns="http://www.w3.org/2000/svg"><g id="Flat"><path d="m448 296h-40l-40-48v-56l-32 16v56l56 64h8v32l10.687-7.125a29.9 29.9 0 0 0 13.313-24.875v32l10.687-7.125a29.9 29.9 0 0 0 13.313-24.875v32l10.687-7.125a29.9 29.9 0 0 0 13.313-24.875v-8a24 24 0 0 0 -24-24z" fill="#74a550"/><path d="m24 328h464v72h-464z" fill="#91563a"/><g fill="#804a32"><path d="m144 352h48v16h-48z"/><path d="m296 352h136v16h-136z"/><path d="m448 352h40v16h-40z"/></g><path d="m432.16 446a12.355 12.355 0 0 1 .1 16.54 12.107 12.107 0 0 1 -16.77.97l-18.84-16.13c-28.61-24.52-70.95-32.28-105.16-15-18.28 9.23-33.06 23.41-49.33 35.5-38.24 28.4-90.52 24.18-129.18-1.07-49.97-32.66-56.96-84.38-56.97-139.93 0-38.62 16.27-78.03 42.99-109.98 45.41-54.31 112.95-89.95 181.96-105.78a101.773 101.773 0 0 0 52.72-31.24l45.55-50.59a16.012 16.012 0 0 1 11.89-5.29h80.88l1.56 3.12 7.55 15.09 6.89 13.77-88 119.94-176 152.08-104-.16c-.17 26.71-1.08 57.12 16 79.96 14.11 18.88 35.33 27.64 58.6 20.71 24.08-7.18 44.39-24.36 67.49-34.09 21.71-9.14 44.82-13.4 68.33-10.58a139.156 139.156 0 0 1 86.85 45.41z" fill="#7eb357"/><path d="m264 176c-42.578 24.994-69.915 51.9-104 88-15.787 16.719-31.379 46.857-34.772 63.848l98.772.152 176-152.08 88-119.94-6.89-13.77-3.366-6.728c-59.063 66.189-137.361 95.679-213.744 140.518z" fill="#87c15e"/><path d="m136 407.8c-9.955-29.915-15.638-55.585-10.772-79.952l-5.228-.008c-.17 26.71-1.08 57.12 16 79.96z" fill="none"/><circle cx="404" cy="60" fill="#5f9448" r="20"/><path d="m481.11 42.21-59.45 59.45-11.32-11.32 63.22-63.22z" fill="#74a550"/><circle cx="368" cy="112" fill="#5f933a" r="16"/><path d="m128 256 58.534-29.267a25.891 25.891 0 0 1 11.577-2.733 25.889 25.889 0 0 1 25.889 25.889v46.111h40a24 24 0 0 1 24 24v8a29.9 29.9 0 0 1 -13.313 24.875l-10.687 7.125v-32a29.9 29.9 0 0 1 -13.313 24.875l-10.687 7.125v-32a29.9 29.9 0 0 1 -13.313 24.875l-10.687 7.125v-32a24 24 0 0 1 -24-24v-40l-48 24" fill="#7eb357"/><path d="m416 296h-48l-32-40v-64l-32 16v64l37.587 43.852a34.79 34.79 0 0 0 26.413 12.148v32l10.687-7.125a29.9 29.9 0 0 0 13.313-24.875v32l10.687-7.125a29.9 29.9 0 0 0 13.313-24.875v32l10.687-7.125a29.9 29.9 0 0 0 13.313-24.875v-8a24 24 0 0 0 -24-24z" fill="#87c15e"/><path d="m215.502 160h128.996v16h-128.996z" fill="#74a550" transform="matrix(.868 -.496 .496 .868 -46.459 161.034)"/><rect fill="#7eb357" height="64" rx="8" width="16" x="296" y="208"/><rect fill="#7eb357" height="40" rx="8" width="16" x="328" y="192"/><path d="m208.462 325.329a8 8 0 0 1 -12.538 3.59 32.066 32.066 0 0 1 -11.924-24.919v-27.056l-36.422 18.211-7.156-14.31 48-24a8.01 8.01 0 0 1 9.224 1.481 8.246 8.246 0 0 1 2.354 5.891v39.783a16.037 16.037 0 0 0 5.961 12.462 7.982 7.982 0 0 1 2.5 8.867z" fill="#74a550"/><path d="m256 304h-32a8 8 0 0 1 -8-8v-46.111a17.911 17.911 0 0 0 -20.464-17.708 18.484 18.484 0 0 0 -5.668 1.83l-58.29 29.144-7.156-14.31 58.534-29.267a33.888 33.888 0 0 1 49.044 30.311v38.111h24a8 8 0 0 1 8 8 8 8 0 0 1 -8 8z" fill="#74a550"/></g></svg>